<?xml version="1.0" encoding="utf-8"?>
<!-- Generator: Adobe Illustrator 27.5.0, SVG Export Plug-In . SVG Version: 6.00 Build 0)  -->
<svg version="1.1" xmlns="http://www.w3.org/2000/svg" xmlns:xlink="http://www.w3.org/1999/xlink" x="0px" y="0px"
	 viewBox="0 0 500 500" style="enable-background:new 0 0 500 500;" xml:space="preserve">
<g id="BACKGROUND">
	<rect style="fill:#E4D6CC;" width="500" height="500"/>
	<path style="fill:#C9B5A9;" d="M487.384,347.882H22.878c0,0,18.442-59.125,48.929-60.189c30.486-1.063,45.248,40.184,79.57,39.928
		s54.477-78.742,109.399-87.257c54.923-8.515,50.403,76.051,84.874,75.673s45.877-33.796,79.288-33.796
		C458.351,282.242,487.384,347.882,487.384,347.882z"/>
	
		<ellipse transform="matrix(0.7071 -0.7071 0.7071 0.7071 -52.5295 228.8652)" style="fill:#F4E8D8;" cx="250" cy="177.841" rx="101.014" ry="101.014"/>
	<circle style="fill:#F4E8D8;" cx="433.376" cy="240.16" r="27.582"/>
</g>
<g id="OBJECTS">
	<path style="fill:#C9B5A9;" d="M357.262,381.828H138.188c-3.219,0-5.853-2.634-5.853-5.853l0,0c0-3.219,2.634-5.853,5.853-5.853
		h219.074c3.219,0,5.853,2.634,5.853,5.853l0,0C363.115,379.194,360.481,381.828,357.262,381.828z"/>
	<g>
		<path style="fill:#FFFFFF;" d="M98.189,125.792l1.829,0.593c0.835,0.271,0.835,1.452,0,1.723l-1.829,0.593
			c-2.284,0.741-4.074,2.531-4.815,4.815l-0.593,1.829c-0.271,0.835-1.452,0.835-1.723,0l-0.593-1.829
			c-0.741-2.284-2.531-4.074-4.815-4.815l-1.829-0.593c-0.835-0.271-0.835-1.452,0-1.723l1.829-0.593
			c2.284-0.741,4.074-2.531,4.815-4.815l0.593-1.829c0.271-0.835,1.452-0.835,1.723,0l0.593,1.829
			C94.115,123.261,95.905,125.052,98.189,125.792z"/>
		<path style="fill:#FFFFFF;" d="M359.128,115.484l1.829,0.593c0.835,0.271,0.835,1.452,0,1.723l-1.829,0.593
			c-2.284,0.741-4.074,2.531-4.815,4.815l-0.593,1.829c-0.271,0.835-1.452,0.835-1.723,0l-0.593-1.829
			c-0.741-2.284-2.531-4.075-4.815-4.815l-1.829-0.593c-0.835-0.271-0.835-1.452,0-1.723l1.829-0.593
			c2.284-0.741,4.074-2.531,4.815-4.815l0.593-1.829c0.271-0.835,1.452-0.835,1.723,0l0.593,1.829
			C355.054,112.952,356.844,114.743,359.128,115.484z"/>
		<path style="fill:#FFFFFF;" d="M368.749,95.461l1.059,0.343c0.484,0.157,0.484,0.841,0,0.998l-1.059,0.344
			c-1.323,0.429-2.36,1.466-2.789,2.789l-0.344,1.059c-0.157,0.484-0.841,0.484-0.998,0l-0.344-1.059
			c-0.429-1.323-1.466-2.36-2.789-2.789l-1.059-0.344c-0.484-0.157-0.484-0.841,0-0.998l1.059-0.343
			c1.323-0.429,2.36-1.466,2.789-2.789l0.344-1.059c0.157-0.484,0.841-0.484,0.998,0l0.344,1.059
			C366.389,93.995,367.426,95.032,368.749,95.461z"/>
		<path style="fill:#FFFFFF;" d="M477.957,254.602l1.059,0.344c0.484,0.157,0.484,0.841,0,0.998l-1.059,0.344
			c-1.323,0.429-2.36,1.466-2.789,2.789l-0.344,1.059c-0.157,0.484-0.841,0.484-0.998,0l-0.344-1.059
			c-0.429-1.323-1.466-2.36-2.789-2.789l-1.059-0.344c-0.484-0.157-0.484-0.841,0-0.998l1.059-0.344
			c1.323-0.429,2.36-1.466,2.789-2.789l0.344-1.059c0.157-0.484,0.841-0.484,0.998,0l0.344,1.059
			C475.597,253.135,476.634,254.173,477.957,254.602z"/>
		<path style="fill:#FFFFFF;" d="M59.729,324.91l1.059,0.344c0.484,0.157,0.484,0.841,0,0.998l-1.059,0.344
			c-1.323,0.429-2.36,1.466-2.789,2.789l-0.344,1.059c-0.157,0.484-0.841,0.484-0.998,0l-0.344-1.059
			c-0.429-1.323-1.466-2.36-2.789-2.789l-1.059-0.344c-0.484-0.157-0.484-0.841,0-0.998l1.059-0.344
			c1.323-0.429,2.36-1.466,2.789-2.789l0.344-1.059c0.157-0.484,0.841-0.484,0.998,0l0.344,1.059
			C57.369,323.444,58.406,324.481,59.729,324.91z"/>
	</g>
	<g>
		<path style="fill:#2E344B;" d="M375.079,315.827H120.372c-4.517,0-8.213-3.696-8.213-8.213V141.979
			c0-4.517,3.696-8.213,8.213-8.213h254.707c4.517,0,8.213,3.696,8.213,8.213v165.634
			C383.292,312.131,379.596,315.827,375.079,315.827z"/>
		<path style="fill:#B9CFE6;" d="M370.943,307.097H124.508c-2.336,0-4.247-1.911-4.247-4.247V146.742
			c0-2.336,1.911-4.247,4.247-4.247h246.435c2.336,0,4.247,1.911,4.247,4.247V302.85
			C375.189,305.186,373.278,307.097,370.943,307.097z"/>
		
			<ellipse transform="matrix(0.1499 -0.9887 0.9887 0.1499 -17.8218 369.3733)" style="fill:#CBDEEE;" cx="205.876" cy="195.05" rx="35.112" ry="35.112"/>
		<g>
			<path style="fill:#D3723F;" d="M298.585,191.252h-51.871c-2.234,0-4.298-1.196-5.409-3.135l-3.501-6.109
				c-0.786-1.371-2.245-2.217-3.826-2.217h-30.667c-2.435,0-4.409,1.974-4.409,4.409v12.898v2.99v53.051
				c0,3.229,2.618,5.847,5.847,5.847h93.835c3.229,0,5.847-2.618,5.847-5.847v-56.041
				C304.433,193.87,301.815,191.252,298.585,191.252z"/>
			<path style="fill:#EBAB6F;" d="M286.081,272.159h-89.01c-4.561,0-8.259-3.698-8.259-8.259v-51.217
				c0-4.562,3.698-8.259,8.259-8.259h89.01c4.561,0,8.259,3.698,8.259,8.259V263.9C294.341,268.461,290.643,272.159,286.081,272.159
				z"/>
			<path style="fill:#EBAB6F;" d="M288.494,272.159h9.438c3.591,0,6.502-2.911,6.502-6.502v-13.91c0,0-0.903,6.158-5.065,6.158
				s-5.027-3.193-5.027-5.93L288.494,272.159z"/>
			<circle style="fill:#FFFFFF;" cx="241.576" cy="238.291" r="22.066"/>
			<path style="fill:#C85F64;" d="M246.318,238.291l6.82-6.82c1.309-1.31,1.309-3.432,0-4.742c-1.309-1.309-3.432-1.309-4.742,0
				l-6.82,6.82l-6.82-6.82c-1.309-1.309-3.432-1.309-4.742,0c-1.309,1.31-1.309,3.432,0,4.742l6.82,6.82l-6.82,6.82
				c-1.309,1.309-1.309,3.432,0,4.742s3.432,1.309,4.742,0l6.82-6.82l6.82,6.82c1.309,1.309,3.432,1.309,4.742,0
				c1.309-1.309,1.309-3.432,0-4.742L246.318,238.291z"/>
		</g>
		<path style="fill:#8EADD5;" d="M371.154,142.496H124.296c-2.219,0-4.035,1.816-4.035,4.035v5.29h254.928v-5.29
			C375.189,144.312,373.373,142.496,371.154,142.496z"/>
		<path style="fill:#FFFFFF;" d="M362.616,149.4h5.842c0.731,0,1.324-0.593,1.324-1.324v-2.168c0-0.731-0.593-1.324-1.324-1.324
			h-5.842c-0.731,0-1.324,0.593-1.324,1.324v2.168C361.292,148.807,361.884,149.4,362.616,149.4z"/>
		<path style="fill:#FFFFFF;" d="M350.965,148.656h5.842c0.731,0,1.324-0.593,1.324-1.324v-0.68c0-0.731-0.593-1.324-1.324-1.324
			h-5.842c-0.731,0-1.324,0.593-1.324,1.324v0.68C349.641,148.064,350.234,148.656,350.965,148.656z"/>
		<path style="fill:#FFFFFF;" d="M340.06,148.656h5.842c0.731,0,1.324-0.593,1.324-1.324v-0.68c0-0.731-0.593-1.324-1.324-1.324
			h-5.842c-0.731,0-1.324,0.593-1.324,1.324v0.68C338.736,148.064,339.329,148.656,340.06,148.656z"/>
		<path style="fill:#FFFFFF;" d="M329.155,148.656h5.842c0.731,0,1.324-0.593,1.324-1.324v-0.68c0-0.731-0.593-1.324-1.324-1.324
			h-5.842c-0.731,0-1.324,0.593-1.324,1.324v0.68C327.831,148.064,328.424,148.656,329.155,148.656z"/>
		<path style="fill:#FFFFFF;" d="M127.518,148.797h5.842c0.731,0,1.324-0.593,1.324-1.324v-0.68c0-0.731-0.593-1.324-1.324-1.324
			h-5.842c-0.731,0-1.324,0.593-1.324,1.324v0.68C126.194,148.204,126.787,148.797,127.518,148.797z"/>
		<path style="fill:#FFFFFF;" d="M138.461,148.797h5.842c0.731,0,1.324-0.593,1.324-1.324v-0.68c0-0.731-0.593-1.324-1.324-1.324
			h-5.842c-0.731,0-1.324,0.593-1.324,1.324v0.68C137.137,148.204,137.73,148.797,138.461,148.797z"/>
		<g>
			<path style="fill:#FFFFFF;" d="M297.152,304.87c-5.204-4.519-13.68-3.36-18.966,1.064c-0.441,0.369-0.858,0.761-1.263,1.163
				h94.23c2.219,0,4.035-1.816,4.035-4.035v-41.682c-6.904,1.575-13.086,5.809-15.933,12.257c-3.976-3.904-11.652-2.659-14.19,2.301
				c-7.151-4.418-16.867-4.264-23.874,0.379c-7.007,4.643-10.937,13.53-9.656,21.838
				C306.104,295.393,298.523,298.933,297.152,304.87z"/>
			<path style="fill:#FFFFFF;" d="M216.806,303.563c-4.723-2.775-11.315-2.851-15.281,0.927
				c-1.979-7.855-11.302-12.964-18.988-10.404c-4.975-7.635-16.962-9.399-23.925-3.521c-1.647-5.186-8.463-7.951-13.258-5.378
				c-1.86-11.73-13.425-20.632-25.094-20.841v38.715c0,2.219,1.816,4.035,4.035,4.035h96.796
				C219.835,305.726,218.422,304.512,216.806,303.563z"/>
		</g>
		<rect x="215.899" y="315.827" style="fill:#6779B7;" width="63.653" height="46.377"/>
		<path style="fill:#2E344B;" d="M347.129,375.975H147.101c-3.79,0-6.863-3.073-6.863-6.863l0,0c0-3.79,3.073-6.863,6.863-6.863
			h200.028c3.79,0,6.863,3.073,6.863,6.863l0,0C353.992,372.903,350.919,375.975,347.129,375.975z"/>
		<polygon style="fill:#2E344B;" points="279.552,315.827 215.899,324.317 215.899,315.827 		"/>
	</g>
	<g>
		<ellipse style="fill:#C9B5A9;" cx="431.193" cy="374.115" rx="21.04" ry="5.236"/>
		<g>
			<path style="fill:#2E344B;" d="M438.577,283.881c1.433-3.993,3.281-7.836,5.504-11.45c1.875-3.048,4.071-5.986,7.001-8.04
				c1.403-0.983,3.332-1.741,4.764-0.8c0.881,0.579,1.305,1.667,1.397,2.718c0.266,3.045-1.748,5.762-3.616,8.181
				c-4.665,6.042-9.091,12.317-12.449,19.172c-3.358,6.855-5.63,14.336-5.792,21.968c-0.043,2.019,0.286,4.96-0.982,6.634
				c-1.682-1.507-0.783-5.628-0.705-7.642c0.135-3.533,0.331-7.065,0.673-10.584C435.036,297.193,436.248,290.368,438.577,283.881z"
				/>
			<path style="fill:#2E344B;" d="M428.83,280.417c-1.088-4.1-2.602-8.088-4.509-11.877c-1.609-3.197-3.546-6.311-6.291-8.607
				c-1.314-1.099-3.171-2.018-4.678-1.203c-0.927,0.502-1.442,1.55-1.623,2.589c-0.525,3.011,1.251,5.89,2.906,8.459
				c4.133,6.417,8.009,13.047,10.771,20.163c2.762,7.116,4.389,14.764,3.9,22.381c-0.129,2.015-0.707,4.918,0.413,6.694
				c1.804-1.358,1.259-5.54,1.354-7.555c0.166-3.531,0.272-7.067,0.231-10.603C431.224,293.983,430.598,287.079,428.83,280.417z"/>
			<path style="fill:#2E344B;" d="M418.066,309.023c-2.76-2.496-5.78-4.706-8.994-6.582c-2.712-1.583-5.625-2.947-8.742-3.325
				c-1.492-0.181-3.298,0.031-4.017,1.351c-0.442,0.812-0.32,1.83,0.043,2.681c1.053,2.466,3.736,3.735,6.182,4.834
				c6.108,2.745,12.128,5.77,17.562,9.684c5.433,3.914,10.286,8.763,13.568,14.601c0.868,1.544,1.831,3.956,3.504,4.727
				c0.678-1.861-1.722-4.678-2.615-6.205c-1.566-2.677-3.178-5.329-4.898-7.911C426.312,317.858,422.551,313.079,418.066,309.023z"
				/>
			<path style="fill:#2E344B;" d="M444.47,310.185c2.76-2.496,5.78-4.706,8.994-6.582c2.712-1.583,5.625-2.947,8.742-3.325
				c1.492-0.181,3.298,0.031,4.016,1.351c0.442,0.812,0.32,1.83-0.043,2.68c-1.053,2.466-3.736,3.735-6.182,4.834
				c-6.108,2.745-12.128,5.77-17.562,9.684s-10.286,8.763-13.568,14.601c-0.868,1.544-1.83,3.956-3.503,4.727
				c-0.678-1.861,1.722-4.678,2.615-6.205c1.566-2.677,3.178-5.329,4.898-7.91C436.224,319.02,439.985,314.241,444.47,310.185z"/>
			<path style="fill:#4F6E59;" d="M427.936,272.843c-0.164-8.76,0.036-17.891,4.008-25.7c1.951-3.835,4.954-7.35,8.992-8.838
				c4.037-1.488,9.172-0.442,11.535,3.154c1.711,2.604,1.731,5.981,1.143,9.041c-1.294,6.734-5.132,12.648-8.418,18.667
				c-3.648,6.68-6.705,13.722-8.525,21.112c-1.908,7.748-2.417,15.757-2.251,23.713c0.14,6.729,2.039,14.246,1.327,20.843
				c-5.304-5.366-4.756-18.578-5.502-25.496C428.936,297.216,428.165,285.034,427.936,272.843z"/>
			<path style="fill:#4F6E59;" d="M454.373,275.767c3.254-4.022,7.058-7.909,11.969-9.535c2.083-0.689,4.605-0.858,6.255,0.588
				c1.811,1.587,1.803,4.397,1.316,6.755c-1.939,9.394-8.858,16.847-15.492,23.775c-4.398,4.593-8.796,9.186-13.195,13.78
				c-4.449,4.647-9.115,9.714-10.106,16.071c-0.469,3.005-0.028,6.263-1.279,9.083c-1.669-9.254,1.474-21.239,4.255-30.067
				C441.574,295.178,447.09,284.77,454.373,275.767z"/>
			<path style="fill:#4F6E59;" d="M424.921,297.093c-3.199-12.029-6.886-24.851-16.435-32.835c-1.933-1.617-4.518-3.052-6.869-2.143
				c-3.007,1.163-3.494,5.207-3.051,8.4c0.702,5.054,2.484,9.898,4.57,14.555c2.795,6.241,6.157,12.228,10.031,17.863
				c5.558,8.085,12.292,15.69,15.112,25.087c0.456,1.521,1.881,10.766,3.916,10.031c1.653-0.597,1.123-7.395,1.008-8.611
				C432.188,318.7,427.692,307.515,424.921,297.093z"/>
			<polygon style="fill:#C85F64;" points="448.254,374.115 414.171,374.115 411.264,324.27 451.161,324.27 			"/>
			<g>
				<path style="fill:#FFFFFF;" d="M450.415,337.059c-0.777-0.267-1.567-0.49-2.376-0.632c-2.084-0.366-3.908-0.032-5.886,0.629
					c-1.115,0.372-2.218,0.703-3.408,0.58c-1.061-0.11-2.084-0.492-3.073-0.872c-1.757-0.675-3.529-1.468-5.453-1.407
					c-3.943,0.126-7.092,3.447-11.136,2.074c-1.775-0.602-3.485-1.532-5.418-1.392c-0.572,0.042-1.14,0.164-1.695,0.34l0.058,1.005
					c0.969-0.328,1.966-0.509,3.05-0.25c1.724,0.412,3.171,1.56,4.922,1.9c3.71,0.721,6.64-2.221,10.218-2.337
					c3.681-0.119,6.671,2.905,10.457,2.21c2.183-0.4,4.022-1.441,6.313-1.215c1.153,0.114,2.262,0.43,3.34,0.842L450.415,337.059z"
					/>
				<path style="fill:#FFFFFF;" d="M411.766,332.871c1.058-0.44,2.158-0.696,3.486-0.476c2.087,0.346,3.943,1.504,6.034,1.843
					c2.046,0.332,3.625-0.422,5.402-1.326c1.958-0.997,3.846-1.11,5.974-0.646c3.592,0.783,7.218,2.577,10.954,1.566
					c2.166-0.586,3.967-1.551,6.29-1.361c0.267,0.022,0.518,0.069,0.771,0.115l0.083-1.43c-1.055-0.154-2.113-0.171-3.088-0.051
					c-1.767,0.218-3.308,1.1-5.033,1.449c-1.715,0.347-3.474,0.001-5.134-0.45c-2.935-0.798-5.952-2.039-9.043-1.403
					c-1.771,0.364-3.169,1.584-4.889,2.058c-1.884,0.519-3.743-0.281-5.505-0.881c-1.789-0.61-4.332-0.992-6.383-0.384
					L411.766,332.871z"/>
			</g>
		</g>
	</g>
	<g>
		<ellipse style="fill:#C9B5A9;" cx="86.197" cy="397.282" rx="32.026" ry="7.311"/>
		<g>
			<path style="fill:#FFFFFF;" d="M65.219,342.8h45.089c0.921,0,1.667,0.746,1.667,1.667v48.717c0,3.048-2.471,5.519-5.519,5.519
				H69.071c-3.048,0-5.519-2.471-5.519-5.519v-48.717C63.552,343.547,64.299,342.8,65.219,342.8z"/>
			<path style="fill:#FFFFFF;" d="M71.334,351.683H54.097c-3.913,0-7.086,3.173-7.086,7.086v22.444c0,3.913,3.172,7.086,7.086,7.086
				h17.237c3.913,0,7.086-3.173,7.086-7.086v-22.444C78.419,354.855,75.247,351.683,71.334,351.683z M71.297,377.507
				c0,1.991-1.614,3.606-3.606,3.606h-9.952c-1.991,0-3.606-1.614-3.606-3.606v-15.033c0-1.991,1.614-3.606,3.606-3.606h9.952
				c1.991,0,3.606,1.614,3.606,3.606V377.507z"/>
			<polygon style="fill:#B9CFE6;" points="63.552,351.683 63.552,358.868 61.932,358.868 			"/>
			<polygon style="fill:#B9CFE6;" points="63.552,381.081 63.552,388.267 61.932,388.267 			"/>
		</g>
	</g>
	<g>
		<path style="fill:#C9B5A9;" d="M440.085,421.116L440.085,421.116c4.273-8.884,1.497-23.884-16.651-28.333c0,0,0,0,0,0
			c-0.001,0-0.003-0.001-0.004-0.001c-0.478-0.117-0.961-0.23-1.46-0.332c-0.618-0.131-1.25-0.253-1.908-0.357
			c-0.006-0.001-0.011-0.002-0.016-0.003c-0.082-0.013-0.157-0.02-0.238-0.033c-0.064-0.008-0.128-0.017-0.194-0.027c0,0,0,0,0,0
			c-7.777-1.169-13.887-0.803-18.575,0.588c-0.008,0.002-0.016,0.004-0.023,0.006c-10.364,3.086-13.779,11.168-12.94,18.658l0,0
			c0,0.001,0,0.001,0,0.002c0.046,0.406,0.104,0.81,0.174,1.212c0.001,0.004,0.002,0.008,0.003,0.012
			c0.189,1.082,0.461,2.145,0.817,3.171c4.051,11.676,34.551,16.203,45.274,11.437c2.004-0.89,3.716-2.523,4.997-4.615c0,0,0,0,0,0
			c0,0,0,0,0,0C439.61,422.062,439.854,421.596,440.085,421.116C440.084,421.117,440.085,421.116,440.085,421.116z"/>
		<g>
			<path style="fill:#FFFFFF;" d="M422.424,387.699c-28.329-4.434-34.414,11.705-30.434,23.177
				c3.98,11.471,33.946,15.919,44.481,11.237S449.346,391.913,422.424,387.699z"/>
			<path style="fill:#B9CFE6;" d="M422.424,387.699c-0.145-0.023-0.28-0.037-0.424-0.058c-0.021,0.008-0.043,0.015-0.064,0.023
				c-2.365,0.887-4.628,2.017-6.754,3.366c-1.182-0.85-2.658-1.419-4.011-1.923c-1.488-0.556-3.04-0.996-4.609-1.25
				c-0.317-0.051-0.638-0.072-0.957-0.111c-1.294,0.286-2.501,0.637-3.606,1.059c1.449,0.075,2.871,0.287,4.288,0.593
				c1.419,0.306,2.811,0.697,4.168,1.22c1.085,0.418,2.085,0.982,3.112,1.503c-0.737,0.525-1.457,1.072-2.155,1.651
				c-3.004,2.495-5.615,5.578-7.6,8.94c-0.95,1.609-1.766,3.29-2.465,5.022c-0.714,1.769-1.529,3.749-1.451,5.685
				c0.015,0.374,0.522,0.537,0.719,0.195c0.913-1.581,1.337-3.437,2.068-5.109c0.746-1.704,1.629-3.349,2.632-4.915
				c1.976-3.088,4.361-5.843,7.149-8.224c2.946-2.515,6.356-4.507,9.969-5.898c1.087-0.418,2.196-0.777,3.319-1.088
				C424.691,388.119,423.595,387.882,422.424,387.699z"/>
			<path style="fill:#B9CFE6;" d="M441.38,417.579c0.265-0.433,0.505-0.891,0.732-1.362c-6.397,2.338-13.454,2.923-20.219,3.046
				c-9.285,0.169-18.646-1.748-25.951-7.773c-1.718-1.417-3.298-2.996-4.74-4.692c-0.067-0.079-0.123-0.162-0.189-0.242
				c0.09,0.801,0.231,1.594,0.416,2.375c0.746,0.856,1.524,1.664,2.309,2.407c3.174,2.999,6.969,5.296,11.049,6.837
				c9.228,3.486,19.959,3.133,29.506,1.25C436.696,418.95,439.071,418.352,441.38,417.579z"/>
		</g>
	</g>
	<g>
		<path style="fill:#C9B5A9;" d="M348.093,405.292c-0.351-0.494-0.919-0.788-1.526-0.788H141.985c-0.606,0-1.175,0.294-1.526,0.788
			l-18.82,26.532v2.939c0,0.741,0.601,1.342,1.341,1.342h242.591c0.741,0,1.342-0.601,1.342-1.342v-2.939L348.093,405.292z"/>
		<g>
			<g>
				<path style="fill:#B9CFE6;" d="M368.474,428.468H123.2l18.82-26.532c0.351-0.495,0.919-0.788,1.526-0.788h204.583
					c0.606,0,1.175,0.294,1.526,0.788L368.474,428.468z"/>
			</g>
			<g>
				<polygon style="fill:#FFFFFF;" points="362.335,426.126 129.786,426.126 144.988,403.489 346.685,403.489 				"/>
			</g>
			<g>
				<path style="fill:#6779B7;" d="M124.584,432.748h242.505c0.765,0,1.384-0.62,1.384-1.384v-2.896H123.2v2.896
					C123.2,432.128,123.82,432.748,124.584,432.748z"/>
			</g>
			<g>
				<rect x="140.282" y="406.29" style="fill:#B9CFE6;" width="212.255" height="0.484"/>
			</g>
			<g>
				<rect x="136.186" y="410.738" style="fill:#B9CFE6;" width="219.477" height="0.484"/>
			</g>
			<g>
				<rect x="133.62" y="415.811" style="fill:#B9CFE6;" width="225.578" height="0.484"/>
			</g>
			<g>
				<rect x="131.581" y="420.912" style="fill:#B9CFE6;" width="229.656" height="0.484"/>
			</g>
			<g>
				<rect x="245.818" y="402.475" style="fill:#B9CFE6;" width="0.484" height="4.057"/>
			</g>
			<g>
				<rect x="245.594" y="410.981" style="fill:#B9CFE6;" width="0.484" height="5.073"/>
			</g>
			<g>
				
					<rect x="235.816" y="418.361" transform="matrix(0.1872 -0.9823 0.9823 0.1872 -217.4281 574.4223)" style="fill:#B9CFE6;" width="5.192" height="0.485"/>
			</g>
			<g>
				<polygon style="fill:#B9CFE6;" points="238.164,411.032 237.691,410.93 238.66,406.481 239.133,406.583 				"/>
			</g>
			<g>
				<polygon style="fill:#B9CFE6;" points="230.95,406.588 230.479,406.476 231.448,402.419 231.919,402.531 				"/>
			</g>
			<g>
				
					<rect x="228.392" y="413.275" transform="matrix(0.188 -0.9822 0.9822 0.188 -218.5858 562.6512)" style="fill:#B9CFE6;" width="5.165" height="0.484"/>
			</g>
			<g>
				
					<rect x="221.439" y="418.361" transform="matrix(0.1872 -0.9823 0.9823 0.1872 -229.1134 560.2994)" style="fill:#B9CFE6;" width="5.192" height="0.485"/>
			</g>
			<g>
				<polygon style="fill:#B9CFE6;" points="223.787,411.032 223.314,410.93 224.283,406.481 224.756,406.583 				"/>
			</g>
			<g>
				<polygon style="fill:#B9CFE6;" points="216.572,406.588 216.101,406.476 217.07,402.419 217.541,402.531 				"/>
			</g>
			<g>
				
					<rect x="214.015" y="413.275" transform="matrix(0.188 -0.9822 0.9822 0.188 -230.2607 548.5302)" style="fill:#B9CFE6;" width="5.165" height="0.484"/>
			</g>
			<g>
				
					<rect x="207.061" y="418.361" transform="matrix(0.1872 -0.9823 0.9823 0.1872 -240.7974 546.1808)" style="fill:#B9CFE6;" width="5.192" height="0.485"/>
			</g>
			<g>
				<polygon style="fill:#B9CFE6;" points="209.41,411.032 208.937,410.93 209.906,406.481 210.379,406.583 				"/>
			</g>
			<g>
				<polygon style="fill:#B9CFE6;" points="202.195,406.588 201.723,406.476 202.692,402.419 203.163,402.531 				"/>
			</g>
			<g>
				
					<rect x="199.638" y="413.275" transform="matrix(0.188 -0.9822 0.9822 0.188 -241.9356 534.4092)" style="fill:#B9CFE6;" width="5.165" height="0.484"/>
			</g>
			<g>
				
					<rect x="192.683" y="418.361" transform="matrix(0.1872 -0.9823 0.9823 0.1872 -252.4847 532.0526)" style="fill:#B9CFE6;" width="5.192" height="0.485"/>
			</g>
			<g>
				<polygon style="fill:#B9CFE6;" points="195.031,411.032 194.558,410.93 195.527,406.481 196,406.583 				"/>
			</g>
			<g>
				<polygon style="fill:#B9CFE6;" points="187.817,406.588 187.346,406.476 188.315,402.419 188.786,402.531 				"/>
			</g>
			<g>
				
					<rect x="185.26" y="413.275" transform="matrix(0.188 -0.9822 0.9822 0.188 -253.6112 520.2874)" style="fill:#B9CFE6;" width="5.165" height="0.484"/>
			</g>
			<g>
				
					<rect x="178.306" y="418.361" transform="matrix(0.1872 -0.9823 0.9823 0.1872 -264.17 517.9296)" style="fill:#B9CFE6;" width="5.192" height="0.485"/>
			</g>
			<g>
				<polygon style="fill:#B9CFE6;" points="180.654,411.032 180.181,410.93 181.15,406.481 181.623,406.583 				"/>
			</g>
			<g>
				<polygon style="fill:#B9CFE6;" points="173.44,406.588 172.969,406.476 173.938,402.419 174.409,402.531 				"/>
			</g>
			<g>
				
					<rect x="170.883" y="413.275" transform="matrix(0.188 -0.9822 0.9822 0.188 -265.2862 506.1664)" style="fill:#B9CFE6;" width="5.165" height="0.484"/>
			</g>
			<g>
				
					<rect x="163.929" y="418.361" transform="matrix(0.1872 -0.9823 0.9823 0.1872 -275.8553 503.8066)" style="fill:#B9CFE6;" width="5.192" height="0.485"/>
			</g>
			<g>
				<polygon style="fill:#B9CFE6;" points="166.277,411.032 165.804,410.93 166.773,406.481 167.246,406.583 				"/>
			</g>
			<g>
				<polygon style="fill:#B9CFE6;" points="159.062,406.588 158.591,406.476 159.56,402.419 160.031,402.531 				"/>
			</g>
			<g>
				
					<rect x="156.505" y="413.275" transform="matrix(0.188 -0.9822 0.9822 0.188 -276.961 492.0454)" style="fill:#B9CFE6;" width="5.165" height="0.484"/>
			</g>
			<g>
				
					<rect x="149.552" y="418.361" transform="matrix(0.1872 -0.9823 0.9823 0.1872 -287.5406 489.6837)" style="fill:#B9CFE6;" width="5.192" height="0.485"/>
			</g>
			<g>
				<polygon style="fill:#B9CFE6;" points="151.9,411.032 151.427,410.93 152.396,406.481 152.869,406.583 				"/>
			</g>
			<g>
				
					<rect x="341.444" y="416.008" transform="matrix(0.9824 -0.1866 0.1866 0.9824 -72.11 71.111)" style="fill:#B9CFE6;" width="0.485" height="5.192"/>
			</g>
			<g>
				<polygon style="fill:#B9CFE6;" points="341.935,411.032 340.966,406.583 341.439,406.481 342.408,410.93 				"/>
			</g>
			<g>
				<polygon style="fill:#B9CFE6;" points="334.723,406.588 333.754,402.531 334.225,402.419 335.194,406.476 				"/>
			</g>
			<g>
				
					<rect x="334.008" y="410.935" transform="matrix(0.9822 -0.1876 0.1876 0.9822 -71.644 70.0501)" style="fill:#B9CFE6;" width="0.484" height="5.165"/>
			</g>
			<g>
				
					<rect x="327.067" y="416.008" transform="matrix(0.9824 -0.1866 0.1866 0.9824 -72.3625 68.4282)" style="fill:#B9CFE6;" width="0.485" height="5.192"/>
			</g>
			<g>
				<polygon style="fill:#B9CFE6;" points="327.558,411.032 326.589,406.583 327.062,406.481 328.031,410.93 				"/>
			</g>
			<g>
				<rect x="319.37" y="402.475" style="fill:#B9CFE6;" width="0.484" height="4.057"/>
			</g>
			<g>
				
					<rect x="319.63" y="410.935" transform="matrix(0.9822 -0.1876 0.1876 0.9822 -71.8993 67.3529)" style="fill:#B9CFE6;" width="0.484" height="5.165"/>
			</g>
			<g>
				
					<rect x="312.69" y="416.008" transform="matrix(0.9824 -0.1866 0.1866 0.9824 -72.615 65.7454)" style="fill:#B9CFE6;" width="0.485" height="5.192"/>
			</g>
			<g>
				<polygon style="fill:#B9CFE6;" points="313.18,411.032 312.211,406.583 312.685,406.481 313.653,410.93 				"/>
			</g>
			<g>
				<rect x="304.992" y="402.475" style="fill:#B9CFE6;" width="0.484" height="4.057"/>
			</g>
			<g>
				
					<rect x="305.253" y="410.935" transform="matrix(0.9822 -0.1876 0.1876 0.9822 -72.1612 64.6628)" style="fill:#B9CFE6;" width="0.484" height="5.165"/>
			</g>
			<g>
				
					<rect x="298.312" y="416.008" transform="matrix(0.9824 -0.1866 0.1866 0.9824 -72.8675 63.0627)" style="fill:#B9CFE6;" width="0.485" height="5.192"/>
			</g>
			<g>
				<polygon style="fill:#B9CFE6;" points="298.803,411.032 297.834,406.583 298.307,406.481 299.276,410.93 				"/>
			</g>
			<g>
				<rect x="290.614" y="402.475" style="fill:#B9CFE6;" width="0.484" height="4.057"/>
			</g>
			<g>
				
					<rect x="290.875" y="410.935" transform="matrix(0.9822 -0.1876 0.1876 0.9822 -72.4099 61.9581)" style="fill:#B9CFE6;" width="0.484" height="5.165"/>
			</g>
			<g>
				
					<rect x="283.934" y="416.008" transform="matrix(0.9824 -0.1866 0.1866 0.9824 -73.1269 60.3865)" style="fill:#B9CFE6;" width="0.485" height="5.192"/>
			</g>
			<g>
				<polygon style="fill:#B9CFE6;" points="284.425,411.032 283.456,406.583 283.929,406.481 284.898,410.93 				"/>
			</g>
			<g>
				<polygon style="fill:#B9CFE6;" points="277.213,406.588 276.244,402.531 276.715,402.419 277.684,406.476 				"/>
			</g>
			<g>
				
					<rect x="276.498" y="410.935" transform="matrix(0.9822 -0.1876 0.1876 0.9822 -72.6652 59.2609)" style="fill:#B9CFE6;" width="0.484" height="5.165"/>
			</g>
			<g>
				
					<rect x="269.557" y="416.008" transform="matrix(0.9824 -0.1866 0.1866 0.9824 -73.3726 57.6969)" style="fill:#B9CFE6;" width="0.486" height="5.192"/>
			</g>
			<g>
				<polygon style="fill:#B9CFE6;" points="270.048,411.032 269.079,406.583 269.552,406.481 270.521,410.93 				"/>
			</g>
			<g>
				<polygon style="fill:#B9CFE6;" points="262.835,406.588 261.866,402.531 262.337,402.419 263.306,406.476 				"/>
			</g>
			<g>
				
					<rect x="262.121" y="410.935" transform="matrix(0.9822 -0.1876 0.1876 0.9822 -72.9205 56.5636)" style="fill:#B9CFE6;" width="0.484" height="5.165"/>
			</g>
			<g>
				
					<rect x="199.638" y="423.533" transform="matrix(0.1878 -0.9822 0.9822 0.1878 -251.9863 542.8312)" style="fill:#B9CFE6;" width="5.164" height="0.484"/>
			</g>
			<g>
				
					<rect x="185.26" y="423.533" transform="matrix(0.1878 -0.9822 0.9822 0.1878 -263.6649 528.7088)" style="fill:#B9CFE6;" width="5.164" height="0.484"/>
			</g>
			<g>
				
					<rect x="170.883" y="423.533" transform="matrix(0.1878 -0.9822 0.9822 0.1878 -275.3426 514.5872)" style="fill:#B9CFE6;" width="5.164" height="0.484"/>
			</g>
			<g>
				
					<rect x="156.506" y="423.533" transform="matrix(0.1878 -0.9822 0.9822 0.1878 -287.0204 500.4658)" style="fill:#B9CFE6;" width="5.164" height="0.484"/>
			</g>
			<g>
				
					<rect x="334.008" y="421.193" transform="matrix(0.9822 -0.1876 0.1876 0.9822 -73.5813 70.2471)" style="fill:#B9CFE6;" width="0.484" height="5.164"/>
			</g>
			<g>
				
					<rect x="319.63" y="421.193" transform="matrix(0.9822 -0.1876 0.1876 0.9822 -73.8367 67.5493)" style="fill:#B9CFE6;" width="0.484" height="5.164"/>
			</g>
			<g>
				
					<rect x="305.253" y="421.193" transform="matrix(0.9822 -0.1877 0.1877 0.9822 -74.0989 64.8587)" style="fill:#B9CFE6;" width="0.484" height="5.164"/>
			</g>
			<g>
				
					<rect x="290.875" y="421.193" transform="matrix(0.9822 -0.1876 0.1876 0.9822 -74.3475 62.1535)" style="fill:#B9CFE6;" width="0.484" height="5.164"/>
			</g>
			<g>
				
					<rect x="255.18" y="416.008" transform="matrix(0.9824 -0.1866 0.1866 0.9824 -73.6251 55.0141)" style="fill:#B9CFE6;" width="0.485" height="5.192"/>
			</g>
			<g>
				<polygon style="fill:#B9CFE6;" points="255.671,411.032 254.702,406.583 255.175,406.481 256.144,410.93 				"/>
			</g>
		</g>
	</g>
	<g>
		<path style="fill:#FFFFFF;" d="M239.369,74.118H138.204c-4.891,0-8.856,3.965-8.856,8.856v55.416c0,4.891,3.965,8.856,8.856,8.856
			h66.165l9.793,16.961c1.138,1.972,3.985,1.972,5.123,0l9.793-16.961h10.291c4.891,0,8.856-3.965,8.856-8.856V82.974
			C248.225,78.083,244.26,74.118,239.369,74.118z"/>
	</g>
	<path style="fill:#FFFFFF;" d="M413.599,103.586h-1.769c-0.329-1.157-0.787-2.258-1.361-3.287l1.251-1.251
		c0.942-0.942,0.942-2.47,0-3.413l-2.59-2.59c-0.942-0.943-2.47-0.943-3.413,0l-1.251,1.251c-1.029-0.574-2.131-1.032-3.287-1.361
		v-1.769c0-1.333-1.08-2.413-2.413-2.413h-3.662c-1.333,0-2.413,1.08-2.413,2.413v1.769c-1.157,0.329-2.258,0.787-3.287,1.361
		l-1.251-1.251c-0.942-0.943-2.47-0.943-3.413,0l-2.59,2.59c-0.942,0.942-0.942,2.47,0,3.413l1.251,1.251
		c-0.574,1.029-1.032,2.131-1.361,3.287h-1.769c-1.333,0-2.413,1.08-2.413,2.413v3.662c0,1.333,1.08,2.413,2.413,2.413h1.769
		c0.329,1.157,0.787,2.258,1.361,3.287l-1.251,1.251c-0.942,0.942-0.942,2.47,0,3.413l2.59,2.59c0.942,0.942,2.471,0.942,3.413,0
		l1.251-1.251c1.029,0.574,2.131,1.032,3.287,1.361v1.769c0,1.333,1.08,2.413,2.413,2.413h3.662c1.333,0,2.413-1.08,2.413-2.413
		v-1.769c1.157-0.329,2.258-0.787,3.287-1.361l1.251,1.251c0.942,0.942,2.47,0.942,3.413,0l2.59-2.59
		c0.942-0.942,0.942-2.47,0-3.413l-1.251-1.251c0.574-1.029,1.032-2.131,1.361-3.287h1.769c1.333,0,2.413-1.08,2.413-2.413v-3.662
		C416.012,104.666,414.932,103.586,413.599,103.586z M396.934,115.779c-4.39,0-7.949-3.559-7.949-7.949
		c0-4.39,3.559-7.949,7.949-7.949c4.39,0,7.949,3.559,7.949,7.949C404.883,112.22,401.324,115.779,396.934,115.779z"/>
	<path style="fill:#FFFFFF;" d="M426.302,135.448h-1.09c-0.203-0.712-0.485-1.391-0.838-2.025l0.77-0.77
		c0.58-0.58,0.58-1.521,0-2.102l-1.595-1.595c-0.58-0.58-1.522-0.58-2.102,0l-0.77,0.77c-0.634-0.354-1.312-0.636-2.025-0.838v-1.09
		c0-0.821-0.665-1.486-1.486-1.486h-2.255c-0.821,0-1.486,0.665-1.486,1.486v1.09c-0.712,0.203-1.391,0.485-2.024,0.838l-0.77-0.77
		c-0.58-0.58-1.521-0.58-2.102,0l-1.595,1.595c-0.58,0.58-0.58,1.521,0,2.102l0.77,0.77c-0.354,0.634-0.636,1.312-0.838,2.025h-1.09
		c-0.821,0-1.486,0.665-1.486,1.486v2.256c0,0.821,0.665,1.486,1.486,1.486h1.09c0.203,0.712,0.485,1.391,0.838,2.025l-0.77,0.77
		c-0.58,0.58-0.58,1.521,0,2.102l1.595,1.595c0.58,0.58,1.522,0.58,2.102,0l0.77-0.77c0.634,0.354,1.312,0.636,2.024,0.838v1.09
		c0,0.821,0.665,1.486,1.486,1.486h2.255c0.821,0,1.486-0.665,1.486-1.486v-1.09c0.712-0.203,1.391-0.485,2.025-0.838l0.77,0.77
		c0.58,0.58,1.521,0.58,2.102,0l1.595-1.595c0.58-0.58,0.58-1.521,0-2.102l-0.77-0.77c0.354-0.634,0.636-1.312,0.838-2.025h1.09
		c0.821,0,1.486-0.665,1.486-1.486v-2.256C427.788,136.113,427.123,135.448,426.302,135.448z M416.039,142.958
		c-2.704,0-4.896-2.192-4.896-4.896c0-2.704,2.192-4.896,4.896-4.896c2.704,0,4.896,2.192,4.896,4.896
		C420.935,140.766,418.743,142.958,416.039,142.958z"/>
	<path style="fill:#FFFFFF;" d="M103.317,296.733h-1.365c-0.254-0.893-0.608-1.743-1.05-2.537l0.965-0.965
		c0.727-0.727,0.727-1.906,0-2.634l-1.998-1.998c-0.727-0.727-1.906-0.727-2.634,0l-0.965,0.965
		c-0.794-0.443-1.644-0.796-2.537-1.05v-1.365c0-1.028-0.834-1.862-1.862-1.862h-2.826c-1.029,0-1.862,0.834-1.862,1.862v1.365
		c-0.893,0.254-1.743,0.607-2.537,1.05l-0.965-0.965c-0.727-0.727-1.906-0.727-2.634,0l-1.998,1.998
		c-0.727,0.727-0.727,1.907,0,2.634l0.965,0.965c-0.443,0.794-0.797,1.644-1.05,2.537h-1.365c-1.028,0-1.862,0.834-1.862,1.862
		v2.826c0,1.029,0.834,1.862,1.862,1.862h1.365c0.254,0.892,0.607,1.742,1.05,2.537l-0.965,0.965c-0.727,0.727-0.727,1.906,0,2.634
		l1.998,1.999c0.727,0.727,1.906,0.727,2.634,0l0.965-0.965c0.794,0.443,1.644,0.797,2.537,1.051v1.365
		c0,1.029,0.834,1.862,1.862,1.862h2.826c1.029,0,1.862-0.834,1.862-1.862v-1.365c0.893-0.254,1.743-0.608,2.537-1.051l0.965,0.965
		c0.727,0.727,1.906,0.727,2.634,0l1.998-1.999c0.727-0.727,0.727-1.906,0-2.634l-0.965-0.965c0.443-0.794,0.797-1.644,1.051-2.537
		h1.365c1.029,0,1.862-0.834,1.862-1.862v-2.826C105.179,297.567,104.345,296.733,103.317,296.733z M90.457,306.142
		c-3.388,0-6.134-2.746-6.134-6.134c0-3.388,2.746-6.134,6.134-6.134c3.388,0,6.134,2.746,6.134,6.134
		C96.591,303.396,93.845,306.142,90.457,306.142z"/>
	<g>
		<g>
			<path style="fill:#FFFFFF;" d="M83.447,166.583l-24.209-10.642c-1.504-0.661-3.259,0.022-3.92,1.526l-20.748,47.201
				c-0.661,1.504,0.022,3.259,1.526,3.92L70.4,223.667c1.504,0.661,3.259-0.022,3.92-1.526l16.311-37.106L83.447,166.583z"/>
			<path style="fill:#C9B5A9;" d="M79.01,176.678c-0.661,1.504,0.022,3.259,1.526,3.92l10.094,4.437l-7.183-18.451L79.01,176.678z"
				/>
		</g>
		<path style="fill:#C85F64;" d="M69.403,192.362l8.492-3.306c1.63-0.635,2.438-2.471,1.803-4.101
			c-0.635-1.63-2.471-2.437-4.101-1.803l-8.492,3.306l-3.306-8.492c-0.635-1.63-2.471-2.437-4.101-1.803
			c-1.63,0.635-2.438,2.471-1.803,4.101l3.306,8.492l-8.492,3.306c-1.63,0.635-2.438,2.471-1.803,4.101
			c0.635,1.63,2.471,2.438,4.101,1.803l8.492-3.306l3.306,8.492c0.635,1.63,2.471,2.438,4.101,1.803
			c1.63-0.635,2.438-2.471,1.803-4.101L69.403,192.362z"/>
	</g>
</g>
<g id="TEXT">
	<text transform="matrix(1 0 0 1 245.5805 188.5748)" style="fill:#2E344B; font-family:'Quicksand-Bold'; font-size:11.5836px;">NO DATA</text>
	<text transform="matrix(1 0 0 1 143.1605 125.4098)" style="fill:#8EADD5; font-family:'Quicksand-Bold'; font-size:44.2923px;">?</text>
	<text transform="matrix(1 0 0 1 178.3168 125.4098)" style="fill:#8EADD5; font-family:'Quicksand-Bold'; font-size:44.2923px;">?</text>
	<text transform="matrix(1 0 0 1 213.4711 125.4098)" style="fill:#8EADD5; font-family:'Quicksand-Bold'; font-size:44.2923px;">?</text>
</g>
</svg>
